<svg xmlns:rdf="http://www.w3.org/1999/02/22-rdf-syntax-ns#" xmlns="http://www.w3.org/2000/svg" xmlns:cc="http://creativecommons.org/ns#" xmlns:dc="http://purl.org/dc/elements/1.1/" viewBox="0 0 1279.1424 1598.88275" version="1.1" x="0px" y="0px"><g transform="translate(-2109.7 -2828.3)"><path d="m2715.4 4106.5c-124.24-6.4444-247.3-50.748-346.83-124.87-26.75-19.918-46.131-36.748-71.27-61.887-52.672-52.672-92.024-107.91-123.77-173.75-85.164-176.59-85.164-379.77 0-556.36 31.749-65.833 71.102-121.07 123.77-173.75 52.672-52.672 107.91-92.024 173.75-123.77 176.59-85.164 379.77-85.164 556.36 0 65.833 31.749 121.07 71.102 173.75 123.77 52.672 52.672 92.024 107.91 123.77 173.75 85.164 176.59 85.164 379.77 0 556.36-31.749 65.833-71.102 121.07-123.77 173.75-42.404 42.404-83.527 73.959-134.49 103.2-105.84 60.726-228.56 89.918-351.26 83.554zm94.448-162.31c35.064-4.7617 64.212-11.639 96.281-22.716 162.62-56.172 282.51-194.9 314.82-364.28 6.2831-32.934 7.6102-48.52 7.6102-89.375s-1.3271-56.441-7.6102-89.375c-37.029-194.09-188.26-345.32-382.35-382.35-32.934-6.2831-48.52-7.6102-89.375-7.6102s-56.441 1.3271-89.375 7.6102c-194.09 37.029-345.32 188.26-382.35 382.35-6.2831 32.934-7.6102 48.52-7.6102 89.375s1.3271 56.441 7.6102 89.375c39.31 206.05 208.17 363.49 415.48 387.4 25.847 2.9808 25.847 2.9808 63.125 2.5498 26.383-0.3051 39.616-1.0316 53.75-2.951zm-140.62-356.37v-200h160v400h-160v-200zm65.249-281.88c-32.521-5.8929-58.226-32.619-63.723-66.253-1.7526-10.724-1.7526-13.011 0-23.735 5.722-35.013 31.593-60.884 66.606-66.606 10.724-1.7526 13.011-1.7526 23.735 0 35.013 5.722 60.884 31.593 66.606 66.606 1.7527 10.724 1.7527 13.011 0 23.735-5.5458 33.935-31.213 60.401-64.297 66.298-11.879 2.1173-17.04 2.1093-28.929-0.045z"/></g></svg>