<svg xmlns:x="http://ns.adobe.com/Extensibility/1.0/" xmlns:i="http://ns.adobe.com/AdobeIllustrator/10.0/" xmlns:graph="http://ns.adobe.com/Graphs/1.0/" xmlns="http://www.w3.org/2000/svg" xmlns:xlink="http://www.w3.org/1999/xlink" version="1.1" x="0px" y="0px" viewBox="0 0 64 80" enable-background="new 0 0 64 64" xml:space="preserve"><metadata><sfw xmlns="http://ns.adobe.com/SaveForWeb/1.0/"><slices/><sliceSourceBounds height="16384" width="16389" x="-8165" y="-8160" bottomLeftOrigin="true"/></sfw></metadata><g><path d="M32,7C18.215,7,7,18.215,7,32s11.215,25,25,25s25-11.215,25-25S45.785,7,32,7z M44.707,43.293   c0.391,0.391,0.391,1.023,0,1.414C44.512,44.902,44.256,45,44,45s-0.512-0.098-0.707-0.293L32,33.414L20.707,44.707   C20.512,44.902,20.256,45,20,45s-0.512-0.098-0.707-0.293c-0.391-0.391-0.391-1.023,0-1.414L30.586,32L19.293,20.707   c-0.391-0.391-0.391-1.023,0-1.414s1.023-0.391,1.414,0L32,30.586l11.293-11.293c0.391-0.391,1.023-0.391,1.414,0   s0.391,1.023,0,1.414L33.414,32L44.707,43.293z"/></g></svg>